# xmcd CD database file
#
# Track frame offsets:
#	150
#	24614
#	56701
#	76825
#	92439
#	131398
#	158001
#	179755
#	219580
#	240814
#	267758
#	300287
#
# Disc length: 4575 seconds
#
# Revision: 0
# Processed by: cddbd v1.5.1PL0 Copyright (c) Steve Scherf et al.
# Submitted via: CDex 1.51
#
DISCID=8b11dd0c
DTITLE=Gale Revilla - Liquid Visions
DYEAR=2003
DGENRE=New Age
TTITLE0=Native Dreams
TTITLE1=Hail To The Father
TTITLE2=Tribal Sunsets
TTITLE3=Dancing On The Morning Star
TTITLE4=Machu Picchu
TTITLE5=Eagles Flight
TTITLE6=Dark Moon
TTITLE7=Nakbe
TTITLE8=Cusco
TTITLE9=Pueblo Canyon
TTITLE10=River Of Souls
TTITLE11=Gale Revilla - Distant Drums
EXTD=YEAR: 2003
EXTT0=
EXTT1=
EXTT2=
EXTT3=
EXTT4=
EXTT5=
EXTT6=
EXTT7=
EXTT8=
EXTT9=
EXTT10=
EXTT11=
PLAYORDER=
